<svg
    width="185"
    height="82"
    viewBox="0 0 82 82"
    fill="none"
    xmlns="http://www.w3.org/2000/svg"
>
    <circle cx="41" cy="41" r="41" fill="#F3F3F3" />
    <path
        d="M62.3191 49.5049C62.0568 49.8342 61.7184 49.9349 61.3051 49.9159C60.7176 49.889 60.128 49.9092 59.5471 49.9092C59.0644 52.7903 57.4762 54.3042 55.0426 54.1956C53.2923 54.1172 51.2335 52.7534 51.0682 49.9417C46.1205 49.9417 41.1718 49.9417 36.2241 49.9417C35.5948 52.9269 34.0573 54.3714 31.6369 54.1911C29.6409 54.0422 27.8466 52.4253 27.7529 49.9081C27.6118 49.9081 27.4663 49.9081 27.3219 49.9081C26.33 49.9081 25.338 49.9114 24.3461 49.9069C23.375 49.9025 22.8163 49.3269 22.8129 48.3348C22.8118 47.9182 22.8129 47.5017 22.8129 47.0314C22.2001 47.0314 21.627 47.0336 21.0528 47.0303C20.8742 47.0292 20.6913 47.0325 20.5193 46.9967C20.2008 46.9295 20.0178 46.7156 20.0013 46.3808C19.9837 46.046 20.1446 45.8165 20.4554 45.7134C20.5833 45.6709 20.7243 45.6597 20.8599 45.6586C22.8438 45.6552 24.8266 45.6563 26.8105 45.6563C26.8788 45.6563 26.9483 45.653 27.0166 45.6597C27.4123 45.7011 27.6724 45.9654 27.6801 46.3293C27.6889 46.7156 27.4299 47.009 27.0056 47.0213C26.2352 47.0426 25.4626 47.0303 24.6921 47.0314C24.529 47.0314 24.367 47.0314 24.1774 47.0314C24.1774 47.5442 24.1774 48.0112 24.1774 48.4949C24.2932 48.5095 24.3857 48.5296 24.4794 48.5296C25.554 48.5319 26.6287 48.5408 27.7022 48.5196C27.8366 48.5173 28.0339 48.3897 28.0912 48.2665C28.8727 46.607 30.1644 45.6787 31.9643 45.6754C33.7652 45.6731 35.0713 46.5958 35.8263 48.2654C35.9541 48.5476 36.1338 48.5308 36.352 48.5308C40.6494 48.5308 44.9478 48.5308 49.2452 48.5308C49.3686 48.5308 49.491 48.5308 49.6761 48.5308C49.6761 48.3572 49.6761 48.2094 49.6761 48.0616C49.6761 46.5645 49.6783 45.0662 49.675 43.5691C49.6739 43.2444 49.7731 42.951 50.0861 42.8715C50.2955 42.8177 50.6074 42.8457 50.7584 42.9756C50.9139 43.11 50.9943 43.4101 50.9976 43.6396C51.0175 45.1233 51.0042 46.6059 51.0142 48.0896C51.0153 48.2329 51.099 48.3751 51.1442 48.5173C51.2489 48.4109 51.39 48.3225 51.4517 48.1948C52.2365 46.5768 53.5194 45.6765 55.284 45.672C57.0485 45.6675 58.348 46.5544 59.1129 48.1836C59.2429 48.4613 59.3895 48.5476 59.6717 48.5341C60.0949 48.514 60.5204 48.5285 60.97 48.5285C60.97 47.5431 60.97 46.5969 60.97 45.6115C60.6603 45.5959 60.3473 45.5925 60.0376 45.5634C59.0093 45.4649 58.2301 44.6485 58.1783 43.6016C58.154 43.0988 58.1584 42.5938 58.1705 42.091C58.1827 41.5927 58.4251 41.3632 58.9266 41.3576C59.5549 41.352 60.1842 41.3565 60.8213 41.3565C60.6449 40.539 59.8502 39.8582 58.9696 39.8504C56.3663 39.8269 53.763 39.8425 51.1596 39.8437C51.1222 39.8437 51.0847 39.8672 51.0009 39.894C51.0009 40.1348 51.0142 40.3845 50.9976 40.632C50.9734 41.0116 50.7155 41.259 50.3628 41.2669C49.9946 41.2758 49.7158 41.0194 49.6805 40.6286C49.6695 40.5032 49.6761 40.3767 49.6761 40.2512C49.6761 36.4586 49.6761 32.666 49.6761 28.8734C49.6761 28.7099 49.6761 28.5453 49.6761 28.3616C41.1619 28.3616 32.695 28.3616 24.1752 28.3616C24.1664 28.5352 24.1499 28.7099 24.1499 28.8846C24.1488 32.6772 24.1488 36.4698 24.1488 40.2624C24.1488 40.9713 23.9581 41.2613 23.4941 41.2669C23.0168 41.2736 22.8118 40.9668 22.8118 40.2423C22.8118 36.3657 22.8118 32.4891 22.8118 28.6125C22.8129 27.5341 23.3409 27 24.4111 27C32.7446 27 41.0792 27 49.4127 27C50.495 27 51.0031 27.514 51.0075 28.6136C51.0086 29.0156 51.0075 29.4176 51.0075 29.861C51.3283 29.861 51.6005 29.861 51.8727 29.861C53.2086 29.861 54.5455 29.8565 55.8813 29.8621C57.5643 29.8688 58.7393 31.039 58.7844 32.7433C58.7878 32.8687 58.7778 32.9952 58.7878 33.1206C58.8208 33.5573 58.7326 33.9291 58.2774 34.1049C58.618 35.4945 58.9465 36.8629 59.2948 38.2267C59.3289 38.3589 59.4612 38.5335 59.5791 38.5649C61.0207 38.949 61.9091 39.8694 62.253 41.3397C62.2618 41.3766 62.2971 41.408 62.3202 41.4416C62.3191 44.1301 62.3191 46.8175 62.3191 49.5049ZM57.9358 38.4686C57.927 38.3745 57.9292 38.3051 57.9126 38.239C57.6073 36.995 57.2888 35.7543 57 34.5069C56.9306 34.2079 56.8204 34.1038 56.5096 34.1071C54.8034 34.1228 53.0973 34.1138 51.3911 34.1161C51.2732 34.1161 51.1552 34.1362 51.045 34.1463C51.045 35.6121 51.045 37.042 51.045 38.4686C53.3607 38.4686 55.6389 38.4686 57.9358 38.4686ZM34.8189 49.9349C34.8189 48.3158 33.5591 47.0392 31.9621 47.0415C30.3815 47.0437 29.0931 48.3494 29.0964 49.9428C29.0997 51.5284 30.4113 52.8564 31.9698 52.8542C33.5404 52.8519 34.8189 51.5418 34.8189 49.9349ZM55.3049 47.0415C53.7156 47.0359 52.4426 48.3146 52.4326 49.9282C52.4227 51.5172 53.7178 52.8463 55.2851 52.8542C56.8468 52.862 58.1485 51.5474 58.1606 49.9495C58.1716 48.3538 56.8876 47.0471 55.3049 47.0415ZM57.4244 32.7063C57.4277 31.8262 56.8248 31.2405 55.9056 31.2349C54.3945 31.2249 52.8823 31.2316 51.3713 31.2338C51.2643 31.2338 51.1574 31.2529 51.0329 31.2652C51.0329 31.7523 51.0329 32.2181 51.0329 32.7074C53.1689 32.7063 55.2795 32.7063 57.4244 32.7063ZM60.9678 44.176C60.9678 43.7012 60.9678 43.2242 60.9678 42.7114C60.711 42.7114 60.4818 42.7114 60.2514 42.7114C60.0101 42.7114 59.7698 42.7114 59.5361 42.7114C59.395 44.0405 59.7389 44.3798 60.9678 44.176Z"
        fill="#EF7B3E"
    />
    <path
        d="M36.1559 39.7048C38.1178 37.7071 39.9848 35.808 41.8508 33.9078C42.3391 33.4117 42.7248 33.3345 43.0456 33.6681C43.3531 33.9884 43.2759 34.3826 42.8119 34.854C40.8368 36.8617 38.8617 38.8683 36.8855 40.8749C36.3389 41.4303 36.0776 41.4314 35.5398 40.885C34.4597 39.7876 33.3696 38.7003 32.3104 37.5828C32.1451 37.4081 32.0128 37.0812 32.0492 36.855C32.1374 36.2906 32.7634 36.1563 33.1966 36.5874C34.0904 37.4787 34.9722 38.3812 35.855 39.2849C35.9597 39.3935 36.0336 39.5323 36.1559 39.7048Z"
        fill="#EF7B3E"
    />
    <path
        d="M42.608 45.6576C44.1621 45.6576 45.7172 45.6531 47.2713 45.6632C47.4708 45.6643 47.732 45.6721 47.8532 45.7919C48.0175 45.9554 48.1696 46.2421 48.1464 46.4559C48.1266 46.6474 47.8852 46.8479 47.6978 46.9766C47.5788 47.0584 47.3793 47.0304 47.2151 47.0304C44.1202 47.0326 41.0253 47.0326 37.9293 47.0326C37.8466 47.0326 37.764 47.036 37.6813 47.0304C37.2393 47.0002 36.9451 46.7202 36.9506 46.3395C36.9561 45.9588 37.257 45.6665 37.6967 45.662C38.8794 45.652 40.0631 45.6576 41.2457 45.6576C41.7009 45.6576 42.1539 45.6576 42.608 45.6576Z"
        fill="#EF7B3E"
    />
    <path
        d="M26.2772 44.1447C24.9138 44.1447 23.5504 44.1481 22.1881 44.1436C21.6823 44.1414 21.3847 43.8626 21.4078 43.437C21.4299 43.0351 21.7263 42.7943 22.2201 42.7943C24.5336 42.7921 26.847 42.7932 29.1594 42.7932C29.6002 42.7932 30.0411 42.7865 30.4809 42.7954C30.9206 42.8044 31.2237 43.0854 31.227 43.4695C31.2303 43.8603 30.9416 44.1414 30.4919 44.1436C29.0855 44.1492 27.6814 44.1447 26.2772 44.1447Z"
        fill="#EF7B3E"
    />
    <path
        d="M31.9555 51.3414C31.2028 51.3324 30.5679 50.6673 30.5866 49.9058C30.6054 49.1522 31.2358 48.533 31.9776 48.5386C32.7392 48.5442 33.3652 49.2004 33.3432 49.9697C33.32 50.73 32.694 51.3503 31.9555 51.3414Z"
        fill="#EF7B3E"
    />
    <path
        d="M56.6784 49.9496C56.6696 50.7122 56.0083 51.3617 55.2632 51.3426C54.527 51.3225 53.9031 50.6708 53.9108 49.9284C53.9186 49.1591 54.5721 48.5186 55.3249 48.541C56.0711 48.5623 56.6861 49.2028 56.6784 49.9496Z"
        fill="#EF7B3E"
    />
</svg>