<svg
    width="123"
    height="96"
    viewBox="0 0 123 96"
    fill="none"
    xmlns="http://www.w3.org/2000/svg"
>
    <g clip-path="url(#clip0_0_186)">
        <path
            d="M123 75.3652C122.249 75.9199 121.572 76.646 120.738 76.999C105.939 83.2285 91.1163 89.4008 76.3173 95.6235C75.1594 96.111 74.155 96.1345 72.9938 95.647C58.1915 89.4243 43.3758 83.2386 28.5635 77.0427C26.488 76.1754 26.2978 75.8863 26.2978 73.6137C26.2978 71.0352 26.2978 68.4533 26.2978 65.7302C25.8206 65.7067 25.4002 65.6697 24.9797 65.6697C19.1302 65.6664 13.2807 65.6697 7.43118 65.663C6.95401 65.663 6.46016 65.6495 6.00634 65.5218C4.99861 65.2394 4.46471 64.4964 4.48807 63.4576C4.51143 62.4794 5.02197 61.7633 5.993 61.5112C6.49019 61.3834 7.02075 61.3498 7.53463 61.3498C13.3041 61.3397 19.0735 61.3431 24.8429 61.3431C25.2767 61.3431 25.7072 61.3431 26.2177 61.3431C26.2177 58.8789 26.2177 56.5222 26.2177 54.0143C23.982 54.0143 21.793 54.0143 19.6007 54.0143C19.0802 54.0143 18.5563 54.0446 18.0391 53.9941C16.7243 53.8698 15.8601 53.0058 15.8534 51.8594C15.8434 50.6491 16.7544 49.7448 18.1325 49.7045C19.6941 49.6574 21.2558 49.691 22.8208 49.691C23.932 49.691 25.0465 49.691 26.2277 49.691C26.2277 47.2167 26.2277 44.8601 26.2277 42.3589C25.6938 42.3589 25.2233 42.3589 24.7562 42.3589C17.5852 42.3589 10.411 42.3791 3.24009 42.3286C2.45592 42.3219 1.52494 42.0933 0.937652 41.6227C0.410428 41.1957 0.0366996 40.3048 0.00333096 39.5988C-0.0400482 38.6979 0.654019 38.0591 1.56832 37.8608C2.03214 37.7599 2.52266 37.7767 3.00317 37.7767C10.3343 37.7734 17.6687 37.7734 24.9998 37.7734C25.4702 37.7734 25.9407 37.7734 26.5547 37.7734C26.5547 37.2086 26.5547 36.7783 26.5547 36.348C26.5547 31.3826 26.5547 26.4172 26.5547 21.4518C26.5547 19.2162 26.5547 19.2195 28.5936 18.3892C43.3592 12.395 58.1281 6.41437 72.877 0.386637C74.1584 -0.137806 75.2662 -0.127721 76.5442 0.400084C91.5634 6.61944 106.603 12.7884 121.629 18.9909C122.126 19.196 122.546 19.586 123 19.8919C123 38.3852 123 56.8752 123 75.3652ZM76.8345 90.769C77.3551 90.5673 77.7589 90.4228 78.1559 90.258C91.3032 84.7514 104.444 79.2313 117.608 73.7616C118.569 73.3616 118.909 72.9111 118.902 71.8487C118.819 56.3508 118.786 40.8494 118.739 25.3515C118.739 24.9514 118.739 24.5547 118.739 24.0269C118.172 24.2387 117.728 24.3866 117.294 24.5682C104.187 30.0681 91.0863 35.5781 77.9691 41.0545C77.1048 41.4142 76.8045 41.8345 76.8078 42.8027C76.8446 58.3443 76.8345 73.8826 76.8345 89.4243C76.8345 89.821 76.8345 90.2211 76.8345 90.769ZM72.4532 90.7489C72.4733 90.3757 72.5 90.137 72.5 89.8983C72.5033 74.1146 72.4933 58.3275 72.5267 42.5438C72.53 41.6496 72.1229 41.3941 71.4489 41.1117C58.2182 35.5882 44.9976 30.0479 31.7702 24.5144C31.4199 24.3665 31.0495 24.2656 30.629 24.1244C30.629 28.8175 30.629 33.3963 30.629 38.0457C31.3999 38.0457 32.0772 38.0457 32.7546 38.0457C33.4353 38.0457 34.1194 38.0121 34.7968 38.0625C36.572 38.1936 37.5897 40.0325 36.5052 41.3302C36.0381 41.8882 35.1071 42.2143 34.343 42.3186C33.135 42.4799 31.8904 42.3623 30.6157 42.3623C30.6157 44.8769 30.6157 47.2402 30.6157 49.6843C31.1329 49.6843 31.5667 49.6843 32.0038 49.6843C38.0536 49.6843 44.1066 49.6809 50.1563 49.6877C51.9416 49.6877 52.9426 50.4609 52.9526 51.8157C52.9626 53.1503 51.9215 53.9773 50.1864 54.0076C49.9061 54.0109 49.6258 54.0076 49.3455 54.0076C43.536 54.0076 37.7232 54.0076 31.9137 54.0076C31.4899 54.0076 31.0662 54.0076 30.6224 54.0076C30.6224 56.539 30.6224 58.899 30.6224 61.333C32.3909 61.333 34.0693 61.3296 35.7478 61.333C36.9891 61.3363 38.2371 61.2859 39.4717 61.37C40.6663 61.4506 41.4438 62.3012 41.4939 63.3837C41.5472 64.4998 40.8598 65.3604 39.6819 65.5857C39.2548 65.6664 38.8043 65.6563 38.3672 65.6563C35.8078 65.663 33.2451 65.6596 30.5289 65.6596C30.5289 67.7944 30.5823 69.8451 30.5056 71.8924C30.4689 72.8909 30.7892 73.3548 31.7269 73.7448C44.8874 79.2246 58.028 84.7547 71.1719 90.2715C71.5757 90.4295 71.9827 90.5707 72.4532 90.7489ZM34.106 20.7693C34.6833 21.0315 35.0704 21.2131 35.4608 21.3778C40.6997 23.5764 45.9519 25.7549 51.1774 27.9905C51.9849 28.3368 52.629 28.3368 53.4365 27.9871C63.1834 23.8017 72.9471 19.6599 82.7074 15.5047C85.784 14.1936 88.8573 12.8758 92.1174 11.4773C91.767 11.289 91.6102 11.1848 91.44 11.1176C86.061 8.94246 80.6853 6.75728 75.2862 4.63261C74.8458 4.4578 74.1951 4.57882 73.7246 4.76708C65.8496 7.92383 57.988 11.1108 50.123 14.2911C44.8541 16.4292 39.5885 18.5539 34.106 20.7693ZM58.0147 30.801C58.3317 30.9691 58.4885 31.0666 58.6553 31.1372C63.7807 33.3022 68.8995 35.484 74.0449 37.5952C74.5154 37.7902 75.2228 37.6893 75.72 37.4809C88.5302 32.1154 101.327 26.7164 114.127 21.3173C114.441 21.1862 114.738 21.0046 115.192 20.7693C109.449 18.4362 103.893 16.1603 98.3139 13.9482C97.9102 13.7868 97.2928 13.9516 96.849 14.1398C84.2524 19.5053 71.6691 24.8909 59.0824 30.2765C58.7755 30.411 58.4718 30.5757 58.0147 30.801Z"
            fill="#EF7B3E"
        />
        <path
            d="M95.9014 77.1973C95.918 79.1606 94.3364 80.9088 92.5345 80.9256C90.866 80.939 89.1609 79.1405 89.1175 77.3251C89.0708 75.392 90.6458 73.6103 92.4544 73.5498C94.2029 73.4893 95.888 75.271 95.9014 77.1973Z"
            fill="#EF7B3E"
        />
        <path
            d="M80.1414 80.3575C80.1614 78.3942 81.7864 76.6965 83.5983 76.7469C85.3102 76.7939 86.9285 78.5824 86.9219 80.4113C86.9152 82.3443 85.2734 84.1059 83.4982 84.0924C81.7197 84.079 80.1213 82.2972 80.1414 80.3575Z"
            fill="#EF7B3E"
        />
    </g>
    <defs>
        <clipPath id="clip0_0_186">
            <rect width="123" height="96" fill="white" />
        </clipPath>
    </defs>
</svg>