<svg
    width="134"
    height="85"
    viewBox="0 0 134 85"
    fill="none"
    xmlns="http://www.w3.org/2000/svg"
>
    <g clip-path="url(#clip0_0_203)">
        <path
            d="M134 70.0618C133.368 71.248 132.36 71.6049 131.065 71.5664C129.114 71.5035 127.159 71.5489 125.104 71.5489C124.894 75.937 123.275 79.5377 119.868 82.2041C117.335 84.1882 114.424 85.1015 111.213 84.9895C105.706 84.8006 98.9452 80.682 98.3693 71.6469C82.6951 71.6469 67.0175 71.6469 51.2247 71.6469C51.0187 76.1014 49.2911 79.7792 45.6789 82.4421C43.1241 84.3247 40.2342 85.1505 37.0757 84.9755C31.9068 84.6886 25.1394 80.8779 24.4973 71.5489C24.0505 71.5489 23.5898 71.5489 23.1291 71.5489C19.988 71.5489 16.8469 71.5664 13.7058 71.5454C10.6763 71.5245 8.93478 69.7573 8.91035 66.7165C8.89988 65.3728 8.90686 64.0291 8.90686 62.5384C6.94191 62.5384 5.12007 62.5419 3.29822 62.5349C2.7747 62.5349 2.2442 62.5559 1.73115 62.4824C0.687604 62.3284 0.0942818 61.6461 0.00702855 60.6313C-0.0872049 59.5431 0.457255 58.7767 1.51825 58.4758C1.93009 58.3568 2.38032 58.3463 2.81309 58.3463C9.04995 58.3393 15.2903 58.3393 21.5272 58.3428C21.8308 58.3428 22.1414 58.3393 22.4416 58.3883C23.6003 58.5773 24.3577 59.4696 24.3053 60.5508C24.2529 61.6426 23.4432 62.4894 22.2496 62.5104C19.7193 62.5594 17.1889 62.5314 14.6586 62.5349C14.1909 62.5349 13.7232 62.5349 13.1788 62.5349C13.1788 64.1656 13.1788 65.6317 13.1788 67.2134C13.4999 67.2554 13.8279 67.3394 14.1595 67.3394C17.5624 67.3499 20.9652 67.3219 24.3681 67.3639C25.1115 67.3708 25.3942 67.0734 25.6944 66.4331C28.0991 61.2822 32.1721 58.4093 37.84 58.3953C43.5603 58.3848 47.6787 61.2437 50.0834 66.4715C50.387 67.1329 50.7326 67.3604 51.448 67.3604C65.2759 67.3394 79.1073 67.3464 92.9352 67.3429C93.2318 67.3429 93.5285 67.2939 93.9683 67.2589C93.9683 66.7375 93.9683 66.2721 93.9683 65.8032C93.9683 61.3872 93.9683 56.9676 93.9683 52.5516C93.9683 52.2016 93.9508 51.8482 93.9787 51.5018C94.0799 50.2701 94.949 49.3918 96.0519 49.3743C97.2245 49.3568 98.139 50.2561 98.1459 51.5788C98.1739 56.3028 98.1599 61.0267 98.1599 65.7507C98.1599 66.0551 98.1041 66.3771 98.1808 66.664C98.2472 66.9054 98.4496 67.2659 98.6206 67.2869C98.851 67.3114 99.1337 67.0839 99.3431 66.9054C99.4582 66.8075 99.4652 66.587 99.542 66.4296C101.975 61.2892 106.037 58.4163 111.702 58.3988C117.425 58.3813 121.537 61.2577 123.952 66.4715C124.259 67.1364 124.587 67.3918 125.306 67.3639C126.737 67.3149 128.172 67.3499 129.704 67.3499C129.704 64.2565 129.704 61.2647 129.704 58.0489C128.974 58.0489 128.21 58.0664 127.446 58.0454C123.599 57.9404 120.926 55.218 120.87 51.3548C120.849 50.0006 120.849 48.6429 120.87 47.2887C120.898 45.6546 121.645 44.9057 123.299 44.8847C125.261 44.8602 127.222 44.8777 129.358 44.8777C129.041 43.4885 128.353 42.3933 127.292 41.7634C126.091 41.0496 124.699 40.2378 123.376 40.2168C115.178 40.0768 106.972 40.1433 98.7707 40.1433C98.6066 40.1433 98.4426 40.1958 98.1529 40.2448C98.1529 41.0111 98.1808 41.7424 98.1459 42.4738C98.0831 43.7335 97.256 44.5768 96.1112 44.5978C94.9804 44.6188 94.1009 43.7825 93.9822 42.5438C93.9438 42.1518 93.9648 41.7564 93.9648 41.3645C93.9648 29.5546 93.9648 17.7446 93.9648 5.93471C93.9648 5.41682 93.9648 4.89544 93.9648 4.29007C67.0175 4.29007 40.1644 4.29007 13.0985 4.29007C13.0985 4.78696 13.0985 5.29085 13.0985 5.79474C13.0985 17.6467 13.0985 29.5021 13.0985 41.354C13.0985 41.7914 13.1194 42.2323 13.0741 42.6662C12.9554 43.8385 12.2609 44.5068 11.1196 44.5803C10.0272 44.6503 9.29426 44.0414 9.01156 42.9917C8.88941 42.5368 8.90686 42.0399 8.90686 41.5605C8.90337 29.4006 8.89988 17.2408 8.90337 5.0809C8.91384 1.68313 10.5926 0 13.978 0C40.3704 0 66.7662 0 93.1586 0C96.4986 0 98.1564 1.65164 98.1669 4.97242C98.1704 6.23564 98.1669 7.49537 98.1669 8.88807C98.7183 8.91256 99.179 8.95455 99.6397 8.95455C104.132 8.95805 108.63 9.04903 113.119 8.93356C118.762 8.79009 123.69 12.6917 122.706 20.3726C122.615 21.0724 121.875 21.6848 121.268 22.5981C122.263 26.5942 123.334 30.9578 124.458 35.3038C124.545 35.6398 124.933 36.0632 125.257 36.1471C129.941 37.3579 132.782 40.3182 133.815 45.0457C133.843 45.1682 133.937 45.2732 133.997 45.3886C134 53.6153 134 61.8386 134 70.0618ZM120.134 35.8532C120.099 35.5208 120.099 35.2583 120.04 35.0134C119.073 31.1187 118.071 27.2311 117.146 23.3259C116.937 22.4371 116.567 22.1537 115.649 22.1607C110.243 22.2062 104.84 22.1817 99.4338 22.1852C99.0534 22.1852 98.6764 22.2377 98.2437 22.2727C98.2437 26.8357 98.2437 31.3112 98.2437 35.8532C105.573 35.8532 112.825 35.8532 120.134 35.8532ZM111.799 80.8009C116.759 80.7799 120.863 76.6438 120.863 71.6714C120.86 66.6955 116.762 62.5874 111.782 62.5699C106.763 62.5524 102.592 66.7515 102.652 71.7589C102.711 76.7453 106.833 80.8219 111.799 80.8009ZM37.8644 80.8009C42.8379 80.8149 46.9213 76.7523 46.9807 71.7344C47.04 66.7165 42.8728 62.5349 37.847 62.5664C32.8631 62.5979 28.7866 66.7025 28.7936 71.6889C28.7971 76.6683 32.9015 80.7904 37.8644 80.8009ZM98.2472 13.1781C98.2472 14.8648 98.2472 16.3309 98.2472 17.8566C105.049 17.8566 111.775 17.8566 118.497 17.8566C118.574 15.1377 116.605 13.2166 113.743 13.1851C110.606 13.1536 107.468 13.1781 104.334 13.1781C102.334 13.1781 100.341 13.1781 98.2472 13.1781ZM125.219 49.1573C124.542 53.101 125.997 54.5286 129.7 53.6538C129.7 52.1492 129.7 50.6515 129.7 49.1573C128.133 49.1573 126.671 49.1573 125.219 49.1573Z"
            fill="#EF7B3E"
        />
        <path
            d="M51.3747 39.5169C53.6154 37.2564 55.7862 35.0589 57.9711 32.8649C61.8242 28.9947 65.6807 25.1316 69.5373 21.2684C69.7537 21.0514 69.9631 20.824 70.2109 20.649C71.1672 19.9772 72.127 20.0332 72.9367 20.8555C73.7499 21.6813 73.7569 22.6506 73.0973 23.5954C72.8983 23.8788 72.6331 24.1168 72.3853 24.3617C66.0647 30.7023 59.7405 37.043 53.4129 43.3801C51.7516 45.0457 50.8931 45.0457 49.2457 43.3976C45.8498 39.9963 42.44 36.6126 39.0895 33.1693C38.5834 32.6514 38.0808 31.8186 38.1227 31.1677C38.1646 30.5379 38.7928 29.7715 39.3756 29.3936C40.2621 28.8163 41.1277 29.3096 41.8257 30.0095C44.6353 32.8229 47.4413 35.6363 50.2509 38.4497C50.5859 38.7856 50.9384 39.104 51.3747 39.5169Z"
            fill="#EF7B3E"
        />
        <path
            d="M71.4359 62.5384C66.5498 62.5384 61.6671 62.5384 56.7809 62.5349C56.3446 62.5349 55.9049 62.5489 55.4756 62.4859C54.3622 62.3214 53.7654 61.5831 53.72 60.5228C53.6747 59.515 54.2017 58.7522 55.2173 58.4792C55.671 58.3568 56.1666 58.3428 56.6413 58.3428C66.5428 58.3358 76.4408 58.3358 86.3423 58.3393C86.6459 58.3393 86.9565 58.3323 87.2567 58.3708C88.4852 58.5387 89.2914 59.459 89.2182 60.5788C89.1483 61.667 88.3351 62.4719 87.1345 62.5139C85.5675 62.5663 83.9934 62.5349 82.4264 62.5349C78.7617 62.5419 75.1006 62.5384 71.4359 62.5384Z"
            fill="#EF7B3E"
        />
        <path
            d="M19.8658 53.5628C15.5939 53.5628 11.322 53.5663 7.05007 53.5593C5.39924 53.5558 4.44643 52.772 4.4569 51.4633C4.46737 50.1826 5.46206 49.3672 7.08497 49.3672C15.7161 49.3602 24.3471 49.3672 32.9782 49.3602C33.9659 49.3602 34.9083 49.5982 35.2329 50.5675C35.4388 51.1868 35.4318 52.1806 35.0618 52.6075C34.6046 53.1394 33.6763 53.5068 32.9433 53.5208C28.5842 53.6048 24.225 53.5628 19.8658 53.5628Z"
            fill="#EF7B3E"
        />
        <path
            d="M111.754 67.3638C114.166 67.3638 116.092 69.2849 116.089 71.6819C116.085 74.0544 114.113 76.0385 111.754 76.042C109.391 76.0455 107.43 74.0684 107.426 71.6854C107.423 69.2744 109.339 67.3638 111.754 67.3638Z"
            fill="#EF7B3E"
        />
        <path
            d="M42.1957 71.7309C42.1712 74.1313 40.2028 76.0804 37.8365 76.0419C35.4841 76.0034 33.5087 73.9774 33.5401 71.6329C33.5715 69.2394 35.526 67.3428 37.9342 67.3638C40.3529 67.3848 42.2201 69.2954 42.1957 71.7309Z"
            fill="#EF7B3E"
        />
    </g>
    <defs>
        <clipPath id="clip0_0_203">
            <rect width="134" height="85" fill="white" />
        </clipPath>
    </defs>
</svg>