<svg
    width="178"
    height="27"
    viewBox="0 0 178 27"
    fill="none"
    xmlns="http://www.w3.org/2000/svg"
>
    <path
        d="M4.14382 23.398H10.9515V26.7863H0V5.47937H4.14382V23.398Z"
        fill="white"
    />
    <path
        d="M23.1753 27C21.2416 27 19.4656 26.5319 17.8476 25.5958C16.2295 24.6597 14.9469 23.3674 13.9997 21.7191C13.0526 20.0503 12.579 18.1679 12.579 16.0718C12.579 13.996 13.0526 12.134 13.9997 10.4856C14.9469 8.81684 16.2295 7.51441 17.8476 6.57829C19.4656 5.64217 21.2416 5.17411 23.1753 5.17411C25.1289 5.17411 26.9048 5.64217 28.5031 6.57829C30.1212 7.51441 31.3939 8.81684 32.3213 10.4856C33.2685 12.134 33.7421 13.996 33.7421 16.0718C33.7421 18.1679 33.2685 20.0503 32.3213 21.7191C31.3939 23.3674 30.1212 24.6597 28.5031 25.5958C26.885 26.5319 25.1091 27 23.1753 27ZM23.1753 23.1843C24.4185 23.1843 25.5136 22.8994 26.4608 22.3296C27.408 21.7394 28.1479 20.905 28.6807 19.8265C29.2135 18.7479 29.4799 17.4963 29.4799 16.0718C29.4799 14.6473 29.2135 13.4059 28.6807 12.3477C28.1479 11.2691 27.408 10.4449 26.4608 9.87507C25.5136 9.30526 24.4185 9.02035 23.1753 9.02035C21.9322 9.02035 20.8272 9.30526 19.8603 9.87507C18.9131 10.4449 18.1732 11.2691 17.6404 12.3477C17.1076 13.4059 16.8412 14.6473 16.8412 16.0718C16.8412 17.4963 17.1076 18.7479 17.6404 19.8265C18.1732 20.905 18.9131 21.7394 19.8603 22.3296C20.8272 22.8994 21.9322 23.1843 23.1753 23.1843Z"
        fill="white"
    />
    <path
        d="M51.2099 11.8898C50.7364 10.9943 50.0852 10.3126 49.2564 9.84455C48.4277 9.37648 47.4608 9.14245 46.3558 9.14245C45.1323 9.14245 44.0471 9.42736 43.0999 9.99717C42.1527 10.567 41.4128 11.381 40.88 12.4392C40.3472 13.4975 40.0808 14.7185 40.0808 16.1023C40.0808 17.5269 40.3472 18.7682 40.88 19.8265C41.4325 20.8847 42.1922 21.6987 43.1591 22.2685C44.126 22.8383 45.2507 23.1232 46.5333 23.1232C48.1119 23.1232 49.4044 22.6959 50.4108 21.8412C51.4171 20.9661 52.0782 19.7552 52.3939 18.2086H45.2902V14.9423H56.4785V18.6665C56.2023 20.1521 55.6103 21.5257 54.7026 22.7875C53.7949 24.0492 52.6208 25.0667 51.1804 25.84C49.7596 26.593 48.1613 26.9695 46.3854 26.9695C44.3924 26.9695 42.5869 26.5116 40.9688 25.5958C39.3705 24.6597 38.1076 23.3674 37.1802 21.7191C36.2725 20.0707 35.8186 18.1984 35.8186 16.1023C35.8186 14.0062 36.2725 12.134 37.1802 10.4856C38.1076 8.81684 39.3705 7.52459 40.9688 6.60882C42.5869 5.6727 44.3825 5.20464 46.3558 5.20464C48.6842 5.20464 50.7068 5.7948 52.4235 6.97513C54.1402 8.13511 55.3242 9.77332 55.9753 11.8898H51.2099Z"
        fill="white"
    />
    <path
        d="M69.1343 27C67.2005 27 65.4246 26.5319 63.8065 25.5958C62.1885 24.6597 60.9058 23.3674 59.9587 21.7191C59.0115 20.0503 58.5379 18.1679 58.5379 16.0718C58.5379 13.996 59.0115 12.134 59.9587 10.4856C60.9058 8.81684 62.1885 7.51441 63.8065 6.57829C65.4246 5.64217 67.2005 5.17411 69.1343 5.17411C71.0878 5.17411 72.8637 5.64217 74.4621 6.57829C76.0801 7.51441 77.3529 8.81684 78.2803 10.4856C79.2274 12.134 79.701 13.996 79.701 16.0718C79.701 18.1679 79.2274 20.0503 78.2803 21.7191C77.3529 23.3674 76.0801 24.6597 74.4621 25.5958C72.844 26.5319 71.0681 27 69.1343 27ZM69.1343 23.1843C70.3774 23.1843 71.4726 22.8994 72.4197 22.3296C73.3669 21.7394 74.1069 20.905 74.6396 19.8265C75.1724 18.7479 75.4388 17.4963 75.4388 16.0718C75.4388 14.6473 75.1724 13.4059 74.6396 12.3477C74.1069 11.2691 73.3669 10.4449 72.4197 9.87507C71.4726 9.30526 70.3774 9.02035 69.1343 9.02035C67.8911 9.02035 66.7861 9.30526 65.8192 9.87507C64.8721 10.4449 64.1321 11.2691 63.5993 12.3477C63.0666 13.4059 62.8002 14.6473 62.8002 16.0718C62.8002 17.4963 63.0666 18.7479 63.5993 19.8265C64.1321 20.905 64.8721 21.7394 65.8192 22.3296C66.7861 22.8994 67.8911 23.1843 69.1343 23.1843Z"
        fill="white"
    />
    <path
        d="M113.371 0V26.7863H107.044V15.7589H97.2027V26.7863H90.876V0H97.2027V10.4932H107.044V0H113.371Z"
        fill="white"
    />
    <path
        d="M124.265 5.22753V10.6458H132.738V15.6826H124.265V21.5588H133.848V26.7863H117.938V0H133.848V5.22753H124.265Z"
        fill="white"
    />
    <path
        d="M151.2 26.7863L145.799 16.6747H144.282V26.7863H137.955V0H148.574C150.621 0 152.36 0.368852 153.79 1.10656C155.246 1.84426 156.331 2.86179 157.046 4.15913C157.761 5.43103 158.119 6.85557 158.119 8.43273C158.119 10.2134 157.626 11.8033 156.639 13.2024C155.677 14.6015 154.247 15.5936 152.347 16.1786L158.341 26.7863H151.2ZM144.282 12.0577H148.204C149.363 12.0577 150.226 11.7651 150.793 11.18C151.385 10.595 151.681 9.76823 151.681 8.69983C151.681 7.68231 151.385 6.88101 150.793 6.29593C150.226 5.71085 149.363 5.41832 148.204 5.41832H144.282V12.0577Z"
        fill="white"
    />
    <path
        d="M168.417 5.22753V10.6458H176.89V15.6826H168.417V21.5588H178V26.7863H162.091V0H178V5.22753H168.417Z"
        fill="white"
    />
</svg>