<svg
    width="80"
    height="96"
    viewBox="0 0 80 96"
    fill="none"
    xmlns="http://www.w3.org/2000/svg"
>
    <g clip-path="url(#clip0_0_190)">
        <path
            d="M56.4946 0C56.9796 0.434989 57.4872 0.844978 57.9472 1.30497C64.9556 8.30228 71.9515 15.3146 78.9749 22.2994C79.695 23.0144 80 23.7669 80 24.7819C79.98 44.5263 79.985 64.2733 79.985 84.0178C79.985 85.9678 79.5249 86.4127 77.5322 86.4152C75.1919 86.4152 72.8541 86.4152 70.3863 86.4152C70.3863 86.8127 70.3863 87.1427 70.3863 87.4727C70.3863 89.6902 70.3988 91.9101 70.3813 94.1275C70.3713 95.3725 69.7787 95.955 68.5436 95.995C68.326 96.0025 68.106 95.9975 67.8885 95.9975C46.0783 95.9975 24.268 95.9975 2.45781 95.9975C0.415052 95.9975 0 95.58 0 93.5226C0 65.3108 0 37.099 0 8.88727C0 6.79982 0.417552 6.38983 2.53532 6.38733C4.84561 6.38733 7.15339 6.38733 9.5987 6.38733C9.5987 4.97237 9.64121 3.60991 9.5837 2.24994C9.54369 1.24997 9.82123 0.477488 10.7388 0C25.9907 0 41.2427 0 56.4946 0ZM54.4093 3.25991C40.4876 3.25991 26.6683 3.25991 12.8591 3.25991C12.8591 29.9292 12.8591 56.5285 12.8591 83.1453C34.1843 83.1453 55.4469 83.1453 76.7121 83.1453C76.7121 63.9433 76.7121 44.8088 76.7121 25.6068C76.272 25.6068 75.8995 25.6068 75.5269 25.6068C69.2462 25.6068 62.9654 25.6093 56.6846 25.6043C54.8794 25.6018 54.4093 25.1243 54.4093 23.3244C54.4068 17.0146 54.4093 10.7022 54.4093 4.39239C54.4093 4.02239 54.4093 3.6574 54.4093 3.25991ZM3.28041 9.63475C3.28041 37.374 3.28041 65.0633 3.28041 92.7301C24.6231 92.7301 45.8857 92.7301 67.1384 92.7301C67.1384 90.6051 67.1384 88.5527 67.1384 86.4152C66.6908 86.4152 66.2933 86.4152 65.8932 86.4152C47.986 86.4152 30.0763 86.4152 12.169 86.4152C10.0013 86.4152 9.5987 86.0127 9.5987 83.8503C9.5987 59.5084 9.5987 35.1666 9.5987 10.8222C9.5987 10.4297 9.5987 10.0397 9.5987 9.63475C7.40593 9.63475 5.35817 9.63475 3.28041 9.63475ZM74.2043 22.3519C68.6486 16.8046 63.1404 11.3047 57.6722 5.84735C57.6722 11.2647 57.6722 16.7996 57.6722 22.3519C63.2304 22.3519 68.7211 22.3519 74.2043 22.3519Z"
            fill="#EF7B3E"
        />
        <path
            d="M49.5687 71.9981C43.4129 71.9981 37.2572 72.0006 31.1014 71.9956C30.7288 71.9956 30.3438 71.9981 29.9862 71.9081C29.2237 71.7156 28.8161 71.1456 28.8211 70.3981C28.8261 69.6057 29.2712 69.0382 30.0788 68.8607C30.4088 68.7882 30.7613 68.8057 31.1039 68.8057C43.4454 68.8032 55.7895 68.8032 68.131 68.8057C68.4436 68.8057 68.7636 68.7857 69.0636 68.8532C69.8537 69.0307 70.3338 69.5332 70.3588 70.3531C70.3838 71.1756 69.9288 71.7131 69.1487 71.9206C68.7961 72.0156 68.4061 71.9931 68.0335 71.9931C61.8802 71.9981 55.7245 71.9981 49.5687 71.9981Z"
            fill="#EF7B3E"
        />
        <path
            d="M49.6512 49.6037C55.712 49.6037 61.7727 49.6037 67.836 49.6037C68.1785 49.6037 68.5261 49.5987 68.8661 49.6387C69.7687 49.7437 70.3438 50.3287 70.3713 51.1412C70.4013 51.9812 69.8237 52.6261 68.8886 52.7661C68.6136 52.8086 68.3285 52.8086 68.0485 52.8086C55.7395 52.8111 43.4279 52.8111 31.1189 52.8111C31.0564 52.8111 30.9939 52.8111 30.9314 52.8111C29.5787 52.7886 28.8211 52.2162 28.8111 51.2137C28.8011 50.2062 29.5512 49.6087 30.9064 49.6087C37.1521 49.5987 43.4029 49.6037 49.6512 49.6037Z"
            fill="#EF7B3E"
        />
        <path
            d="M49.5812 59.2109C55.737 59.2109 61.8927 59.2109 68.0485 59.2109C69.6162 59.2109 70.3438 59.7009 70.3688 60.7634C70.3938 61.8534 69.6012 62.4133 68.026 62.4133C55.747 62.4133 43.4654 62.4133 31.1864 62.4108C30.8138 62.4108 30.4313 62.4033 30.0713 62.3208C29.2537 62.1334 28.7286 61.4584 28.8236 60.6984C28.9286 59.8609 29.3962 59.3284 30.2713 59.2409C30.6113 59.2059 30.9589 59.2159 31.3014 59.2159C37.3947 59.2109 43.4879 59.2109 49.5812 59.2109Z"
            fill="#EF7B3E"
        />
        <path
            d="M49.5512 33.5841C43.4579 33.5841 37.3647 33.5841 31.2714 33.5841C30.9289 33.5841 30.5813 33.5966 30.2413 33.5591C29.4312 33.4666 28.8211 32.8541 28.8186 32.0741C28.8161 31.2742 29.1962 30.6942 30.0063 30.4942C30.3338 30.4117 30.6838 30.3942 31.0239 30.3942C43.3979 30.3892 55.7695 30.3892 68.1435 30.3942C68.4836 30.3942 68.8361 30.4092 69.1611 30.4917C69.9712 30.7017 70.4538 31.3792 70.3513 32.1566C70.2438 32.9641 69.7612 33.4466 68.9486 33.5566C68.6111 33.6016 68.2635 33.5841 67.9185 33.5841C61.8002 33.5841 55.677 33.5841 49.5512 33.5841Z"
            fill="#EF7B3E"
        />
        <path
            d="M49.6487 43.1889C43.4929 43.1889 37.3372 43.1889 31.1839 43.1889C29.5762 43.1889 28.7961 42.6589 28.8086 41.5839C28.8186 40.5165 29.6137 39.9865 31.2114 39.9865C43.4604 39.9865 55.707 39.984 67.956 39.9915C68.3886 39.9915 68.8386 40.0065 69.2512 40.1215C70.0038 40.329 70.3888 40.8865 70.3588 41.6589C70.3288 42.4289 69.9012 42.9514 69.1386 43.1139C68.7461 43.1964 68.3311 43.1864 67.926 43.1864C61.8352 43.1889 55.742 43.1889 49.6487 43.1889Z"
            fill="#EF7B3E"
        />
        <path
            d="M25.5507 27.1918C24.053 27.1918 22.5553 27.2068 21.0576 27.1868C19.825 27.1718 19.1999 26.5743 19.1924 25.3443C19.1699 22.3169 19.1724 19.292 19.1924 16.2646C19.1999 15.0221 19.8075 14.4246 21.0451 14.4171C24.073 14.4021 27.0984 14.4021 30.1263 14.4171C31.3839 14.4246 31.964 14.9896 31.9715 16.2496C31.9915 19.277 31.9915 22.3019 31.9715 25.3294C31.964 26.6193 31.3639 27.1743 30.0463 27.1868C28.5461 27.2018 27.0484 27.1918 25.5507 27.1918ZM22.4078 23.9144C24.5031 23.9144 26.5958 23.9144 28.7136 23.9144C28.7136 21.8219 28.7136 19.752 28.7136 17.6821C26.5783 17.6821 24.5056 17.6821 22.4078 17.6821C22.4078 19.7795 22.4078 21.8069 22.4078 23.9144Z"
            fill="#EF7B3E"
        />
        <path
            d="M22.3678 33.5666C21.8052 33.5666 21.2402 33.6016 20.6826 33.5591C19.81 33.4916 19.3349 32.9467 19.2149 32.1167C19.1099 31.3817 19.65 30.5692 20.4551 30.4992C21.7202 30.3892 23.0104 30.3817 24.2755 30.4842C25.1481 30.5567 25.6532 31.3367 25.5457 32.1592C25.4332 33.0167 24.9106 33.4991 24.053 33.5616C23.4929 33.6016 22.9304 33.5691 22.3678 33.5691V33.5666Z"
            fill="#EF7B3E"
        />
        <path
            d="M22.4253 59.236C22.9879 59.236 23.5529 59.1985 24.1105 59.246C24.9506 59.3185 25.5257 59.9059 25.5507 60.6959C25.5807 61.5634 25.1581 62.2259 24.308 62.3009C23.0429 62.4134 21.7552 62.4084 20.4876 62.3084C19.675 62.2434 19.1549 61.4609 19.2024 60.7184C19.2524 59.9059 19.8575 59.2985 20.7376 59.236C21.2977 59.196 21.8602 59.2285 22.4228 59.2285C22.4253 59.231 22.4253 59.2335 22.4253 59.236Z"
            fill="#EF7B3E"
        />
        <path
            d="M22.3978 71.9906C21.8677 71.9906 21.3352 72.0206 20.8051 71.9831C19.855 71.9156 19.1749 71.2081 19.1999 70.3582C19.2249 69.5282 19.875 68.8582 20.7876 68.8207C21.8477 68.7782 22.9129 68.7782 23.973 68.8182C24.9106 68.8532 25.5307 69.4907 25.5582 70.3407C25.5857 71.2256 24.9556 71.9081 23.988 71.9806C23.4604 72.0231 22.9279 71.9906 22.3978 71.9906Z"
            fill="#EF7B3E"
        />
        <path
            d="M22.3403 43.1414C21.7477 43.1414 21.1501 43.1889 20.5651 43.1289C19.7275 43.0464 19.2724 42.4714 19.2249 41.6864C19.1774 40.8989 19.5699 40.1889 20.3925 40.1214C21.7177 40.0139 23.0679 40.0089 24.393 40.1239C25.2032 40.1939 25.5982 40.8764 25.5482 41.6914C25.4982 42.5039 25.0331 43.0389 24.2105 43.1289C23.5929 43.1964 22.9629 43.1414 22.3403 43.1414Z"
            fill="#EF7B3E"
        />
        <path
            d="M22.4253 49.5762C23.0279 49.6062 23.658 49.5887 24.2705 49.6787C25.0906 49.8012 25.5332 50.3537 25.5457 51.1687C25.5607 51.9812 25.1456 52.6312 24.328 52.6912C23.0304 52.7861 21.7127 52.7862 20.4176 52.6837C19.59 52.6187 19.1899 51.9237 19.2224 51.1387C19.2549 50.3537 19.7 49.7762 20.5376 49.6737C21.1526 49.5962 21.7802 49.6062 22.4253 49.5762Z"
            fill="#EF7B3E"
        />
    </g>
    <defs>
        <clipPath id="clip0_0_190">
            <rect width="80" height="96" fill="white" />
        </clipPath>
    </defs>
</svg>