<svg
    className="mt-2.5"
    width="210"
    height="82"
    viewBox="0 0 82 82"
    fill="none"
    xmlns="http://www.w3.org/2000/svg"
>
    <circle cx="41" cy="41" r="41" fill="#F3F3F3" />
    <g clip-path="url(#clip0_0_1)">
        <path
            d="M55.3988 32.5746C54.9848 32.5746 54.6238 32.5746 54.2207 32.5746C54.2207 30.5924 54.2207 28.6123 54.2207 26.6071C52.8007 26.6071 51.4216 26.6071 49.9985 26.6071C49.9985 26.7432 49.9985 26.8763 49.9985 27.0093C49.9985 28.4102 49.9995 29.811 49.9985 31.2108C49.9985 31.7871 49.8075 31.9822 49.2455 31.9832C47.7454 31.9842 46.2453 31.9842 44.7462 31.9832C44.2002 31.9822 44.0032 31.7851 44.0022 31.2398C44.0002 29.7039 44.0012 28.167 44.0012 26.6061C42.5991 26.6061 41.22 26.6061 39.8189 26.6061C39.8189 31.3849 39.8189 36.1577 39.8189 40.9715C40.587 40.9715 41.367 40.9715 42.1721 40.9715C42.1721 41.3917 42.1721 41.7699 42.1721 42.1782C41.396 42.1782 40.625 42.1782 39.8269 42.1782C39.8269 46.988 39.8269 51.7688 39.8269 56.5926C40.6 56.5926 41.379 56.5926 42.1781 56.5926C42.1781 57.0038 42.1781 57.374 42.1781 57.7993C42.0501 57.7993 41.9181 57.7993 41.787 57.7993C35.7997 57.7993 29.8134 57.7993 23.826 57.7993C23.174 57.7993 23 57.6292 23 56.9868C23 46.7188 23 36.4518 23 26.1849C23 25.5595 23.176 25.3824 23.797 25.3824C34.0586 25.3824 44.3202 25.3824 54.5818 25.3824C55.2278 25.3824 55.3978 25.5545 55.3978 26.2039C55.3978 28.192 55.3978 30.1802 55.3978 32.1693C55.3988 32.2924 55.3988 32.4155 55.3988 32.5746ZM28.4003 26.6101C26.9702 26.6101 25.5911 26.6101 24.2161 26.6101C24.2161 31.4119 24.2161 36.1837 24.2161 40.9695C29.0143 40.9695 33.7926 40.9695 38.5749 40.9695C38.5749 36.1657 38.5749 31.3849 38.5749 26.6101C37.1708 26.6101 35.7917 26.6101 34.3976 26.6101C34.3976 28.164 34.3986 29.6889 34.3976 31.2138C34.3976 31.7891 34.2066 31.9832 33.6426 31.9842C32.1925 31.9852 30.7434 31.9852 29.2933 31.9842C28.5443 31.9842 28.4013 31.8402 28.4013 31.0887C28.4003 29.6018 28.4003 28.116 28.4003 26.6101ZM38.5689 56.5926C38.5689 51.7988 38.5689 47.01 38.5689 42.2152C37.1778 42.2152 35.7987 42.2152 34.3976 42.2152C34.3976 43.7771 34.3986 45.314 34.3966 46.8499C34.3956 47.3932 34.1966 47.5913 33.6516 47.5923C32.1515 47.5933 30.6524 47.5933 29.1523 47.5923C28.5903 47.5913 28.4003 47.3962 28.4003 46.8189C28.3993 45.4181 28.4003 44.0183 28.4003 42.6174C28.4003 42.4844 28.4003 42.3513 28.4003 42.2152C26.9772 42.2152 25.5981 42.2152 24.2261 42.2152C24.2261 47.022 24.2261 51.8038 24.2261 56.5926C29.0163 56.5926 33.7766 56.5926 38.5689 56.5926ZM29.6244 26.5971C29.6244 28.0069 29.6244 29.3867 29.6244 30.7555C30.8304 30.7555 32.0085 30.7555 33.1806 30.7555C33.1806 29.3547 33.1806 27.9839 33.1806 26.5971C31.9905 26.5971 30.8204 26.5971 29.6244 26.5971ZM48.7744 30.7685C48.7744 29.3587 48.7744 27.9789 48.7744 26.6101C47.5684 26.6101 46.3903 26.6101 45.2182 26.6101C45.2182 28.0109 45.2182 29.3817 45.2182 30.7685C46.4083 30.7685 47.5784 30.7685 48.7744 30.7685ZM33.1726 46.3796C33.1726 44.9668 33.1726 43.587 33.1726 42.2082C31.9745 42.2082 30.8054 42.2082 29.6184 42.2082C29.6184 43.606 29.6184 44.9848 29.6184 46.3796C30.8094 46.3796 31.9795 46.3796 33.1726 46.3796Z"
            fill="#EF7B3E"
        />
        <path
            d="M43.4011 46.3936C43.4011 43.0307 43.4001 39.6667 43.4011 36.3038C43.4021 34.8009 44.4122 33.7883 45.9123 33.7883C49.4365 33.7873 52.9607 33.7873 56.4849 33.7883C57.9859 33.7883 58.998 34.7999 58.998 36.3018C58.999 43.0287 58.999 49.7556 58.998 56.4825C58.998 57.9834 57.9849 58.999 56.4859 58.999C52.9617 59 49.4375 59 45.9133 58.999C44.4142 58.998 43.4011 57.9834 43.4001 56.4845C43.4001 53.1206 43.4011 49.7576 43.4011 46.3936ZM57.8019 46.4026C57.8019 43.0887 57.8019 39.7738 57.8019 36.4598C57.8019 35.4433 57.3509 34.986 56.3469 34.986C52.9217 34.986 49.4965 34.986 46.0723 34.986C45.0592 34.986 44.5992 35.4403 44.5992 36.4418C44.5992 43.0707 44.5992 49.6986 44.5992 56.3274C44.5992 57.358 45.0492 57.8013 46.0913 57.8013C49.4915 57.8013 52.8917 57.8013 56.2908 57.8013C57.3599 57.8013 57.8019 57.365 57.8019 56.3074C57.8019 53.0055 57.8019 49.7036 57.8019 46.4026Z"
            fill="#EF7B3E"
        />
        <path
            d="M28.4163 24.1517C28.4163 23.7615 28.4163 23.3922 28.4163 23.002C34.4076 23.002 40.384 23.002 46.3793 23.002C46.3793 23.3842 46.3793 23.7545 46.3793 24.1517C40.404 24.1517 34.4286 24.1517 28.4163 24.1517Z"
            fill="#EF7B3E"
        />
        <path
            d="M47.6234 23C48.0044 23 48.3724 23 48.7694 23C48.7694 23.3732 48.7694 23.7504 48.7694 24.1537C48.3994 24.1537 48.0224 24.1537 47.6234 24.1537C47.6234 23.7735 47.6234 23.3962 47.6234 23Z"
            fill="#EF7B3E"
        />
        <path
            d="M34.9677 39.7748C34.5826 39.7748 34.2146 39.7748 33.8236 39.7748C33.8236 39.3846 33.8236 39.0073 33.8236 38.6101C34.2006 38.6101 34.5696 38.6101 34.9677 38.6101C34.9677 38.9793 34.9677 39.3565 34.9677 39.7748Z"
            fill="#EF7B3E"
        />
        <path
            d="M36.2177 39.7618C36.2177 39.3656 36.2177 38.9964 36.2177 38.6091C36.6028 38.6091 36.9708 38.6091 37.3688 38.6091C37.3688 38.9803 37.3688 39.3576 37.3688 39.7618C37.0008 39.7618 36.6238 39.7618 36.2177 39.7618Z"
            fill="#EF7B3E"
        />
        <path
            d="M34.9747 55.3909C34.5786 55.3909 34.2196 55.3909 33.8306 55.3909C33.8306 55.0087 33.8306 54.6304 33.8306 54.2262C34.1976 54.2262 34.5746 54.2262 34.9747 54.2262C34.9747 54.6034 34.9747 54.9806 34.9747 55.3909Z"
            fill="#EF7B3E"
        />
        <path
            d="M36.2187 55.3719C36.2187 54.9726 36.2187 54.6044 36.2187 54.2182C36.6048 54.2182 36.9728 54.2182 37.3698 54.2182C37.3698 54.5924 37.3698 54.9696 37.3698 55.3719C36.9988 55.3719 36.6218 55.3719 36.2187 55.3719Z"
            fill="#EF7B3E"
        />
        <path
            d="M54.2267 44.0133C54.6278 44.0133 54.9988 44.0133 55.3668 44.0133C55.5378 45.6342 54.2207 47.4363 52.4706 48.0006C50.6035 48.602 48.5474 47.8055 47.5604 46.0975C46.5703 44.3835 46.9183 42.1762 48.3854 40.8634C49.7505 39.6417 51.9606 39.4176 53.2907 40.3792C53.0997 40.7084 52.9087 41.0395 52.7206 41.3647C50.5485 40.6183 48.8584 41.3287 48.3264 43.1838C47.8604 44.8108 48.8744 46.5248 50.5185 46.91C51.9546 47.2472 53.9887 46.4607 54.2267 44.0133Z"
            fill="#EF7B3E"
        />
        <path
            d="M55.9818 52.4242C55.9818 52.8174 55.9818 53.1876 55.9818 53.5769C52.7887 53.5769 49.6135 53.5769 46.4193 53.5769C46.4193 53.1906 46.4193 52.8204 46.4193 52.4242C49.5975 52.4242 52.7737 52.4242 55.9818 52.4242Z"
            fill="#EF7B3E"
        />
        <path
            d="M55.5338 39.9219C55.8658 40.2571 56.1288 40.5222 56.4159 40.8124C56.3339 40.9014 56.2558 40.9925 56.1718 41.0775C54.7158 42.5364 53.2587 43.9942 51.8016 45.4521C51.3266 45.9274 51.0816 45.9254 50.6075 45.4571C50.1635 45.0188 49.7155 44.5846 49.2615 44.1403C49.5725 43.8552 49.8545 43.596 50.1695 43.3068C50.4505 43.628 50.7755 43.9983 51.0986 44.3675C52.6206 42.8406 54.0637 41.3947 55.5338 39.9219Z"
            fill="#EF7B3E"
        />
        <path
            d="M48.8174 51.1675C48.8174 50.7762 48.8174 50.407 48.8174 50.0168C51.2096 50.0168 53.5847 50.0168 55.9798 50.0168C55.9798 50.401 55.9798 50.7702 55.9798 51.1675C53.6047 51.1675 51.2286 51.1675 48.8174 51.1675Z"
            fill="#EF7B3E"
        />
        <path
            d="M50.5915 36.2127C50.5915 36.6059 50.5915 36.9651 50.5915 37.3554C50.2115 37.3554 49.8345 37.3554 49.4295 37.3554C49.4295 36.9912 49.4295 36.6139 49.4295 36.2127C49.8035 36.2127 50.1795 36.2127 50.5915 36.2127Z"
            fill="#EF7B3E"
        />
        <path
            d="M51.8196 37.3614C51.8196 36.9621 51.8196 36.5939 51.8196 36.2077C52.2056 36.2077 52.5736 36.2077 52.9707 36.2077C52.9707 36.5809 52.9707 36.9591 52.9707 37.3614C52.5996 37.3614 52.2226 37.3614 51.8196 37.3614Z"
            fill="#EF7B3E"
        />
        <path
            d="M47.5914 50.0208C47.5914 50.414 47.5914 50.7732 47.5914 51.1634C47.2113 51.1634 46.8343 51.1634 46.4293 51.1634C46.4293 50.7992 46.4293 50.422 46.4293 50.0208C46.8033 50.0208 47.1793 50.0208 47.5914 50.0208Z"
            fill="#EF7B3E"
        />
        <path
            d="M50.6185 56.5786C50.6185 56.1904 50.6185 55.8222 50.6185 55.4269C50.9986 55.4269 51.3756 55.4269 51.7766 55.4269C51.7766 55.8042 51.7766 56.1814 51.7766 56.5786C51.3976 56.5786 51.0296 56.5786 50.6185 56.5786Z"
            fill="#EF7B3E"
        />
    </g>
    <defs>
        <clipPath id="clip0_0_1">
            <rect
                width="36"
                height="36"
                fill="white"
                transform="translate(23 23)"
            />
        </clipPath>
    </defs>
</svg>