<svg
    className="mt-2.5"
    width="185"
    height="82"
    viewBox="0 0 82 82"
    fill="none"
    xmlns="http://www.w3.org/2000/svg"
>
    <circle cx="41" cy="41" r="41" fill="#F3F3F3" />
    <path
        d="M34.6369 21.9984C34.6343 26.5648 34.6307 31.1312 34.6289 35.6984C34.6289 35.7534 34.644 35.8093 34.6564 35.8909C39.7527 36.9107 44.8453 37.9288 50.0116 38.9629C51.0795 34.22 52.1429 29.4958 53.2196 24.7175C53.9407 24.8558 54.6369 24.9853 55.3314 25.1237C57.1513 25.4864 58.9713 25.8526 60.7912 26.2163C61.922 26.4424 62.6671 27.0845 62.9429 28.2214C63.1637 29.1322 62.7522 30.168 61.9487 30.7498C61.2489 31.2571 60.464 31.2961 59.6524 31.1409C58.7265 30.9644 57.8041 30.772 56.8799 30.5875C56.7558 30.5627 56.6307 30.5449 56.4728 30.5175C56.2103 31.6508 55.9487 32.7745 55.6906 33.899C55.5123 34.6777 55.326 35.4563 55.1726 36.2403C55.1354 36.4292 55.162 36.6651 55.2462 36.8371C55.8715 38.1204 56.5314 39.3877 57.1487 40.6754C57.2604 40.9086 57.3056 41.2279 57.2498 41.478C56.1349 46.4647 54.9997 51.447 53.8795 56.432C53.8369 56.6209 53.8635 56.8568 53.9407 57.0359C55.5558 60.7935 53.3518 65.0477 49.3535 65.8725C45.8041 66.605 42.244 64.0961 41.7793 60.523C41.7473 60.2774 41.6533 60.1816 41.4192 60.139C35.8156 59.1094 30.213 58.0709 24.6094 57.0404C23.452 56.8275 22.7363 56.1943 22.5757 55.1372C22.5278 54.8215 22.5784 54.4818 22.6369 54.1625C22.7203 53.7147 22.8418 53.2722 22.9677 52.8341C23.1957 52.0394 23.6915 51.479 24.4844 51.2147C24.7114 51.1393 24.8187 51.0391 24.8728 50.7863C25.4786 47.9529 26.1039 45.1238 26.7221 42.2921C26.7487 42.1688 26.7584 42.042 26.7859 41.8434C24.1704 41.8434 21.585 41.8434 18.9988 41.8434C18.9988 36.7742 18.9988 31.7049 18.9988 26.6366C20.5456 25.0917 22.0923 23.5451 23.6382 21.9984C27.3048 21.9984 30.9704 21.9984 34.6369 21.9984ZM34.6298 41.8638C34.4054 41.8638 34.2493 41.8638 34.0932 41.8638C32.2892 41.8638 30.4853 41.8726 28.6821 41.8558C28.354 41.8522 28.2467 41.9658 28.1819 42.2717C27.6143 44.9527 27.0307 47.63 26.4498 50.3083C26.2511 51.2235 26.2467 51.2324 27.1513 51.4142C32.6378 52.5183 38.1243 53.6198 43.6134 54.7071C43.7908 54.7425 44.0391 54.6618 44.1908 54.5492C44.8773 54.0419 45.6134 53.6455 46.4453 53.4451C46.6999 53.3839 46.8019 53.2535 46.8604 52.9893C47.6409 49.4782 48.44 45.9716 49.232 42.4624C49.3881 41.7724 49.5336 41.0807 49.6897 40.3614C48.0906 40.0422 46.5429 39.7327 44.9766 39.4196C44.5207 41.0044 44.0773 42.5475 43.6258 44.1155C40.7699 43.5435 37.9637 42.9812 35.1283 42.4127C35.5797 40.8253 36.0152 39.2946 36.4613 37.7222C35.8405 37.5963 35.2586 37.4783 34.6289 37.3497C34.6298 38.8627 34.6298 40.3313 34.6298 41.8638ZM20.4711 27.6671C20.4711 31.9506 20.4711 36.1773 20.4711 40.4138C24.7194 40.4138 28.934 40.4138 33.1584 40.4138C33.1584 34.7513 33.1584 29.118 33.1584 23.4679C30.3274 23.4679 27.5176 23.4679 24.6644 23.4679C24.6644 24.8771 24.6644 26.2579 24.6644 27.6671C23.2515 27.6671 21.8813 27.6671 20.4711 27.6671ZM42.6866 56.0063C42.6218 55.9903 42.487 55.954 42.3513 55.9265C38.8374 55.2197 35.3243 54.512 31.8103 53.8096C29.7101 53.3901 27.6099 52.9706 25.5061 52.5671C24.8666 52.4447 24.4923 52.7046 24.3247 53.3263C24.2139 53.7395 24.1092 54.1546 24.0116 54.5723C23.8972 55.0645 24.1367 55.4565 24.6263 55.5806C24.8054 55.6258 24.9908 55.6489 25.1735 55.6826C29.1194 56.4134 33.0653 57.1441 37.0112 57.8749C38.581 58.1658 40.1509 58.4549 41.6507 58.7316C42.0037 57.8039 42.3407 56.9171 42.6866 56.0063ZM48.0897 64.5457C50.8329 64.5457 53.0307 62.3579 53.0369 59.622C53.0422 56.8665 50.832 54.6414 48.0906 54.6432C45.3518 54.645 43.1336 56.8745 43.1371 59.622C43.1407 62.3464 45.3535 64.5457 48.0897 64.5457ZM49.7606 53.4158C51.5283 45.6834 53.2923 37.9696 55.0635 30.2239C54.5039 30.1166 54.0232 30.0253 53.5167 29.9286C51.766 37.7098 50.0276 45.4351 48.2821 53.1932C48.7806 53.2677 49.2418 53.3369 49.7606 53.4158ZM53.8405 28.5043C54.1065 28.562 54.3265 28.6134 54.5473 28.6577C56.4214 29.0311 58.2954 29.4107 60.1722 29.7734C60.8143 29.8976 61.4218 29.5135 61.5318 28.9548C61.6533 28.342 61.3074 27.8028 60.6396 27.6636C58.5482 27.2281 56.4515 26.8149 54.3141 26.3848C54.1544 27.0996 54.001 27.7877 53.8405 28.5043ZM53.5221 43.3998C53.1274 45.1336 52.7442 46.8177 52.3575 48.5178C52.9864 48.6384 53.5398 48.7448 54.1172 48.8557C54.5074 47.1361 54.8879 45.4608 55.2764 43.7536C54.6883 43.6348 54.1349 43.5231 53.5221 43.3998ZM52.6963 55.1097C53.0653 53.4885 53.4272 51.8958 53.797 50.2693C53.1966 50.1478 52.6289 50.0334 52.0374 49.9146C51.734 51.2271 51.436 52.5033 51.1522 53.7821C51.1336 53.8655 51.1957 54.0074 51.2666 54.0623C51.7189 54.4073 52.1828 54.7363 52.6963 55.1097ZM40.4799 42.0199C41.2037 42.1662 41.8946 42.3054 42.6165 42.4509C42.9331 41.3361 43.2418 40.2497 43.5566 39.1403C42.903 39.0055 42.3034 38.8866 41.7074 38.7554C41.4617 38.7013 41.3881 38.821 41.3296 39.0312C41.0617 40.0058 40.7788 40.976 40.4799 42.0199ZM39.0697 41.7378C39.3926 40.6044 39.6977 39.5314 40.0125 38.4237C39.2648 38.2782 38.5766 38.1452 37.8742 38.0086C37.5513 39.1447 37.2471 40.216 36.9358 41.3113C37.6702 41.4585 38.3504 41.5951 39.0697 41.7378ZM54.589 38.7509C54.3283 39.8905 54.0915 40.9246 53.8467 41.9968C54.4498 42.1174 55.013 42.2291 55.6365 42.3542C55.6923 41.917 55.8848 41.4753 55.7633 41.1507C55.4662 40.3552 55.0236 39.6138 54.589 38.7509ZM23.2178 24.6838C22.707 25.1902 22.1695 25.7232 21.6764 26.2118C22.1243 26.2118 22.66 26.2118 23.2178 26.2118C23.2178 25.6487 23.2178 25.1148 23.2178 24.6838Z"
        fill="#EF7B3E"
    />
    <path
        d="M21.8626 29.8213C23.0316 29.8213 24.1722 29.8213 25.3509 29.8213C25.3509 30.2754 25.3509 30.7214 25.3509 31.2261C24.6671 31.2261 23.9895 31.2261 23.295 31.2261C23.295 33.3704 23.295 35.4554 23.295 37.5714C25.1629 37.5714 27.0138 37.5714 28.9154 37.5714C28.9154 36.6438 28.9154 35.7339 28.9154 34.7938C29.4014 34.7938 29.8387 34.7938 30.3123 34.7938C30.3123 36.1791 30.3123 37.5706 30.3123 38.9939C27.507 38.9939 24.6981 38.9939 21.8617 38.9939C21.8626 35.9503 21.8626 32.9102 21.8626 29.8213Z"
        fill="#EF7B3E"
    />
    <path
        d="M26.0799 35.7055C25.4689 35.0918 24.8551 34.4763 24.2139 33.8316C24.542 33.5558 24.887 33.2649 25.2932 32.9226C25.4733 33.1531 25.7269 33.4786 25.9717 33.7926C27.5354 32.2255 29.0059 30.7516 30.4906 29.2634C30.8693 29.6572 31.1895 29.9898 31.4866 30.2984C29.6941 32.0916 27.8875 33.8981 26.0799 35.7055Z"
        fill="#EF7B3E"
    />
    <path
        d="M48.1074 63.149C46.1677 63.1579 44.5535 61.5633 44.5314 59.6176C44.5101 57.7091 46.1278 56.0365 48.0719 56.0516C50.0817 56.0666 51.5975 57.5876 51.6383 59.583C51.6773 61.5172 50.0498 63.1401 48.1074 63.149ZM48.0666 61.7061C49.2427 61.7141 50.1837 60.805 50.1979 59.6468C50.2121 58.4602 49.2861 57.4962 48.1145 57.4803C46.9544 57.4643 45.9762 58.4327 45.9744 59.5989C45.9726 60.7554 46.9083 61.6981 48.0666 61.7061Z"
        fill="#EF7B3E"
    />
</svg>