<svg
    className="mt-1.5"
    width="14"
    height="13"
    viewBox="0 0 14 13"
    fill="none"
    xmlns="http://www.w3.org/2000/svg"
>
    <path
        d="M13.1781 3.76898V9.98701C13.1729 9.9926 13.1641 9.99767 13.1641 10.0039C13.0652 10.4952 12.5978 10.7986 12.0319 10.7969C8.67775 10.7869 5.32364 10.792 1.96952 10.792C1.91352 10.792 1.85668 10.7935 1.80068 10.79C1.50668 10.7714 1.24642 10.6713 1.07268 10.4485C0.965296 10.3108 0.904676 10.142 0.822636 9.98714V3.76898C0.965716 3.55851 1.10796 3.54213 1.323 3.71308C2.96706 5.0201 4.61206 6.32643 6.258 7.63206C6.37784 7.72683 6.51924 7.81107 6.66624 7.86073C7.07658 7.99931 7.43203 7.88387 7.75403 7.62738C9.39987 6.31612 11.0472 5.00654 12.696 3.69865C12.895 3.54122 13.0388 3.5641 13.1781 3.76898Z"
        fill="#EF7B3E"
    />
    <path
        d="M6.99903 2.2039C8.70787 2.2039 10.4167 2.20365 12.1254 2.20312C12.4277 2.20312 12.6825 2.3005 12.8906 2.5007C13.062 2.66515 13.0539 2.79736 12.866 2.94582C12.1034 3.5472 11.3385 4.14533 10.5784 4.74905C9.54978 5.56605 8.52311 6.3854 7.49841 7.20709C7.08653 7.53729 6.91573 7.53703 6.50259 7.20813C4.83799 5.88282 3.17171 4.55916 1.50375 3.23715C1.37243 3.13315 1.23775 3.03175 1.10909 2.92515C0.95649 2.79983 0.94809 2.66905 1.08417 2.52761C1.29417 2.30985 1.55625 2.20338 1.87251 2.20364C3.58135 2.20468 5.29019 2.20477 6.99903 2.2039Z"
        fill="#EF7B3E"
    />
</svg>