<svg
    className="mt-1.5"
    width="10"
    height="13"
    viewBox="0 0 10 13"
    fill="none"
    xmlns="http://www.w3.org/2000/svg"
>
    <path
        d="M5.31655 0.036891C7.08218 0.28144 8.5526 1.44039 9.10647 3.02729C9.59005 4.40952 9.35388 5.69872 8.25458 7.7189C7.59669 8.9257 6.80103 10.1006 5.69611 11.4935C5.23502 12.0756 4.68677 12.7295 4.65866 12.7295C4.64741 12.7295 4.4984 12.5594 4.3269 12.352C2.28855 9.872 0.742217 7.39461 0.224899 5.77847C0.0280924 5.16709 -2.19345e-05 4.98368 -2.19345e-05 4.38294C0.0027895 3.91777 0.0112238 3.79815 0.0646429 3.55892C0.452632 1.86569 1.73187 0.581809 3.47501 0.140558C4.02044 0.00233459 4.76268 -0.0375366 5.31655 0.036891ZM4.11885 2.56212C3.44689 2.75616 2.94926 3.22931 2.73839 3.8779C2.64561 4.16232 2.64561 4.60623 2.73839 4.88799C2.96613 5.58708 3.47501 6.0496 4.20319 6.21972C4.66147 6.3287 5.24345 6.25161 5.65112 6.03099C6.06722 5.80239 6.38211 5.44354 6.55924 4.989C6.62672 4.8109 6.63515 4.76306 6.63515 4.39623C6.63515 4.02675 6.62953 3.98157 6.55643 3.78486C6.3793 3.3064 6.00818 2.90768 5.54147 2.69503C5.19566 2.5382 4.97073 2.49301 4.58275 2.50896C4.41124 2.51427 4.206 2.5382 4.11885 2.56212Z"
        fill="#EF7B3E"
    />
</svg>