<svg
    className=" mt-1.5"
    width="15"
    height="15"
    viewBox="0 0 15 15"
    fill="none"
    xmlns="http://www.w3.org/2000/svg"
>
    <g>
        <path
            d="M0 3.25159C0.0379941 3.02709 0.065759 2.80003 0.116905 2.57845C0.191432 2.25794 0.359117 1.98525 0.592562 1.75309C1.02876 1.31869 1.46862 0.888299 1.89824 0.447691C2.52551 -0.196245 3.47719 -0.102429 4.04053 0.452437C4.71236 1.1139 5.37763 1.78193 6.04143 2.45105C6.64312 3.05739 6.65043 3.95612 6.05202 4.51026C5.93 4.62306 5.77437 4.71213 5.61911 4.77346C5.20592 4.9359 4.87895 5.18304 4.7025 5.60138C4.59108 5.86603 4.57098 6.1358 4.64478 6.41579C4.86178 7.24079 5.32977 7.91904 5.8931 8.53815C6.47251 9.17479 7.12901 9.71761 7.90935 10.0951C8.26189 10.2655 8.62503 10.4105 9.03237 10.3473C9.52775 10.2706 9.9044 10.0264 10.1265 9.56721C10.1561 9.50588 10.1828 9.44273 10.2076 9.37958C10.5642 8.4812 11.6799 8.19464 12.4102 8.83238C12.781 9.15617 13.1175 9.51975 13.4656 9.8691C13.8726 10.2772 14.2945 10.6722 14.6749 11.1037C15.0961 11.5819 15.1016 12.3368 14.7286 12.8559C14.6522 12.9625 14.566 13.0636 14.4739 13.1567C14.079 13.556 13.6742 13.9459 13.2848 14.3507C12.9381 14.711 12.5234 14.9191 12.0288 14.9742C12.0061 14.9768 11.9846 14.991 11.9627 14.9998C11.738 14.9998 11.5129 14.9998 11.2883 14.9998C11.0216 14.9469 10.7516 14.9067 10.4886 14.8392C9.38966 14.557 8.39779 14.039 7.45013 13.4316C6.29862 12.6934 5.25195 11.8243 4.2831 10.8613C2.90363 9.49055 1.70279 7.98548 0.831852 6.23655C0.505614 5.58093 0.238559 4.90122 0.108502 4.17625C0.0635671 3.92802 0.0354368 3.67687 0 3.42754C0 3.36877 0 3.31 0 3.25159Z"
            fill="#EF7B3E"
        />
    </g>
</svg>